<?xml version="1.0" encoding="UTF-8"?>
<svg id="Victory" xmlns="http://www.w3.org/2000/svg" viewBox="0 0 4798.6 8192">
  <defs>
    <style>
      .cls-1 {
        fill: #010101;
      }
    </style>
  </defs>
  <path class="cls-1" d="M1124.99,7919.43c2.74,33.33-47.93,37.5-50.67,4.17-38.97-455.38-157.21-809.45-297.78-1236.66-166.97-507.24-731.39-2258.02-246.98-2500.27,99.05-49.53,204.99-93.97,316.68-89-72.46-219.34-149.22-576.57,50.42-748.97,98.03-78.29,213.23-122.63,339.58-109.73,109.4,11.17,215.71,62.84,320.25,136.76,79.81,56.44,176.32,82.81,194.02-47.01,19.12-140.18-31.05-382.97-78.94-614.75-41-198.44-67.45-370.85-88.33-570.83-35.37-338.81-51.38-687.59-95.73-1023.93-16.87-127.98-34.21-259.42-38-369.73-21.96-638.31,738.32-668.89,825.83-95.82,13.08,85.7,22.66,193.59,32.38,303.31,41.34,466.2,191.24,871.71,229.18,1329.22,11.72,141.3,28.72,346.34,66.7,538.86,84.36,427.64,301.17,454.73,441.2,32.92,83.67-252.06,193.97-530.38,290.78-778.83,70.29-180.37,141.42-362.91,190.77-557.45,79.12-311.91,210.25-941.4,656.83-832.55,471.43,114.9,249.21,726.37,144.18,1045.22-71.86,220.36-157.76,517.77-238.36,817.16-84.8,314.99-163.66,631.98-214.04,863.43-82.93,380.99-97.43,647.93-72.38,1043.25,34.69,547.41,11.17,844.63-103.73,1384.16-37.39,175.6-71.99,351.78-111.16,527-27.23,121.76-50.81,227.22-62.17,339.51-38.65,382.11-5.41,844.77,34.28,1236.72,3.27,33.2-47.21,38.16-50.48,4.97-39.46-389.7-62.83-815.83-37.92-1202.25-51.3,99.39-126.72,177.14-256.53,233.37-30.59,13.2-50.65-33.3-20.07-46.5,231.53-100.3,274.22-283.76,335.47-547.05,43.05-185,79.34-370.51,118.91-556.3,114.04-535.51,137.16-827.15,102.74-1370.45-25.34-399.89-10.54-671.68,73.37-1057.16,50.51-232.06,129.6-549.92,214.64-865.81,80.73-299.87,166.9-598.17,239.16-819.74,92.73-284.39,315.7-877.01-107.81-980.24-403.51-98.35-524.98,517.13-595.62,795.59-49.97,197-121.79,381.3-192.75,563.41-96.45,247.53-206.64,525.39-289.98,776.45-155.22,467.58-442.73,449.77-539.17-39.09-38.55-195.43-55.69-402.04-67.49-544.43-37.88-456.81-187.61-862.49-228.98-1329.03-9.53-107.47-18.9-213.15-32.18-300.13-77.93-510.32-744.66-488.35-724.88,86.68,3.7,107.66,20.88,237.93,37.6,364.77,44.4,336.76,60.51,686.09,95.93,1025.32,20.7,198.33,46.87,369.06,87.53,565.87,48.75,235.92,99.81,483.02,79.54,631.64-14.53,106.57-81.42,161.43-185.91,127.38,30.21,40.22,56.07,82.38,81.18,124.03,21.23,35.24,21.28,35.74,48.1,28.66,232.81-61.47,580.07,120.58,816.85,193.85,435.22,134.43,378.38,191.65,646.74,504.74,109.68,127.96,341.2,398.07,465.17,755.04,10.85,31.5-37.05,47.99-47.89,16.49-120.7-347.56-348.11-612.86-455.83-738.54-257.27-300.15-203.43-359.61-623.1-489.24-239.02-73.96-646.67-300.16-872.74-150.85-188.71,124.63-170.88,369.54-36.62,529.46,66.47,79.19,157.97,149.54,256.95,208.2,198.83,117.83,425.78,187.79,541.66,187.79,33.46,0,33.46,50.87,0,50.87-37.09,0-84.66-6.62-138.66-19.2,111.79,134.32,175.74,340.36,236.54,497.07,19.89,45.65,48.38,84.46,81.97,116.9,38.46,37.15,83.58,66.01,130.18,87.31,30.32,13.85,9.25,59.96-21.07,46.1-39.1-17.87-77.3-40.6-112.12-68.54,44.31,88.38,97.47,171.05,165.99,236.93,24.05,23.13-11.12,59.7-35.17,36.56-121.22-116.56-195.53-278.53-256.33-435.1-.27-.61-.51-1.23-.72-1.85-65.31-168.48-123.09-366.96-248.84-505.39-43.21-47.57-30.15-33.2-91.21-55.2-70.86-25.54-145.61-58.15-218.26-96.91,77.98,133.09,151.63,277.48,209.75,420.09,40.18,98.59,68.35,210.59,64.63,312.41-7.38,202.07-157.55,329.42-356.62,316.23-46.97-3.11-92.78-15.3-133.1-36.88,54.82,143.92,57.13,319-94.09,400.89-153.38,83.06-350.08,13.52-446.7-121.18-147.36-205.46-289.3-372.15-406.89-603.66-54.14-106.59-110.7-199.92-158.79-308.22-31.44-70.8-81.62-78.99-84.5,6.04-1.05,33.33-51.72,31.74-50.67-1.59,4.52-133.41,124.86-152.38,181.48-24.92,47.65,107.28,104.24,200.38,157.8,305.83,116.22,228.81,257.22,393.76,402.92,596.9,81.92,114.21,250.06,177.17,381.32,106.08,197.53-106.97,65.19-366.62-15.55-510.15-58.84-104.59-114.09-195.98-166.87-283.26-114.53-189.4-217.42-359.58-323.21-609.19-8.56-20.19-15.94-38.54-23.41-57.11-42.52-105.65-87.92-218.41-174.81-263.01-98.69-50.66-249.46,20.31-338.12,64.65-444.6,222.34,105.44,1931.06,271.28,2435.02,68.33,207.63,149.03,540.7,392.47,587.26,32.8,6.27,23.27,56.15-9.54,49.88-94.23-18.02-162.73-66.18-215.04-128.32,65.15,213.59,104.36,401.8,133.61,743.61h0ZM1401.53,3341.36c-56.54-27.7-113.34-46.09-170.45-51.92-97.88-9.99-198.04,17.06-301.45,97.8-186.46,161.37-93.77,528.48-23.34,729.46,106.72,48.19,157.97,175.54,205.95,294.76,8.03,19.96,15.97,39.69,23.02,56.31,103.95,245.28,206.21,414.41,320.03,602.63,52.85,87.41,108.19,178.94,167.66,284.65,56.45,100.37,96.51,156.47,225.65,165.03,170.7,11.31,296.43-94.02,302.77-267.34,3.43-93.81-23.17-198.57-61.05-291.55-67.29-165.13-158.5-342.27-254.69-492.47-91.11-57.28-174.73-124.49-237.83-199.65-159.79-190.34-161.37-449.95,42.87-604.91,32.07-24.33,35.72-13,9.83-54.34-67.2-107.28-129.6-205.24-248.97-268.47h0ZM1870.26,7287.43c-21.22,22.01-45.42-22.61-24.2-44.62,250.81-260.81,624.11,25.29,847.98-160.89,22.75-18.82,43.47,29.07,20.72,47.9-237.18,197.25-610.53-85.69-844.5,157.61h0ZM3176.43,3252.6c-33.06-4.57-26.11-54.85,6.96-50.28,134.15,19.03,295.56,61.79,406.73,141.86,27.05,19.47-2.55,60.61-29.61,41.14-104.19-75.03-258.44-114.89-384.08-132.71ZM3777.11,1566.42c-32.54,7.19-43.47-42.29-10.93-49.48,109.27-24.37,269.67,17.35,356.93,86.17,26.11,20.63-5.29,60.37-31.4,39.74-75.27-59.37-220.24-97.48-314.6-76.44ZM3493.96,2462.19c-32.42,7.84-44.33-41.44-11.92-49.28,130.07-31.58,274.27,7.38,374.78,94.68,25.19,21.8-8,60.15-33.19,38.35-87.99-76.42-215.71-111.42-329.67-83.75h0ZM1767.87,1331.84c-28.85,16.71-54.28-27.21-25.44-43.92,99.72-57.97,235.16-63.9,346.47-44.34,32.93,5.75,24.2,55.83-8.74,50.08-98.86-17.37-223.54-13.41-312.3,38.18h0ZM1888.61,2241.12c-27.81,18.41-55.82-23.92-28.02-42.33,83.29-55.34,243.2-69.95,339.2-46.89,32.41,7.71,20.69,56.99-11.72,49.28-82.23-19.75-228.05-7.51-299.45,39.94h0ZM2025.16,3317.63c-29.67,15.16-52.72-29.95-23.05-45.11,130.13-66.61,266.62-95.58,412.08-101.49,33.33-1.3,35.31,49.37,1.99,50.67-137.22,5.57-268.23,33.08-391.02,95.92h0ZM1716.76,5292.53c19.47,27.05-21.66,56.66-41.14,29.61-40.62-56.33-70.06-114.87-82.41-166.26-46.18-197.35,313.41-372.15,437.48-158.07,20.45,34.54,40.43,79.44,54.82,132.03,8.76,32.15-40.13,45.46-48.89,13.32-13-47.52-31.11-88.19-49.66-119.51-95.79-161.76-377.61-17.38-344.48,120.51,10.78,44.88,37.32,97.15,74.26,148.38ZM1345.52,5761.01c21.4,25.59-17.54,58.17-38.95,32.59-40.66-48.48-76.21-100.06-93.53-148.73-54.95-154.42,152.11-281.87,279.43-224.22,62.49,28.29,107.06,94.05,129.09,167.06,9.54,32.02-39.14,46.52-48.68,14.51-18.23-60.42-54.71-118.56-108.85-138.24-88.02-32-241.09,57.23-203.09,164,14.97,42.08,47.28,88.55,84.59,133.03h0ZM2808.41,4082.6c-4.57-33.07,45.7-40.02,50.27-6.96,10.47,73.78-38.34,171.96-93.99,219.15-25.45,21.54-58.24-17.22-32.79-38.75,42.56-36.08,84.55-116.76,76.51-173.44ZM1624.59,4059.7c-17.1-28.59,26.42-54.62,43.52-26.03,61.5,102.28,226.91,159.67,337.46,112.1,88.7-38.17,160.43-145.81,172.38-239.68,5.04-39.58-24.58-71.07-55.58-90.8-28.06-17.88-.84-60.61,27.22-42.73,48.59,30.93,86.33,79.42,78.64,139.88-14.2,111.52-97.56,234.84-202.58,280.03-133.69,57.53-326.62-8.96-401.05-132.77h0Z"/>
</svg>